# xmcd CD database file
#
# Track frame offsets:
#	150
#	15896
#	28667
#	41763
#	57569
#	68742
#	82421
#	95279
#	110368
#	124776
#	138830
#	149583
#	162647
#	173814
#
# Disc length: 2479 seconds
#
# Revision: 1
# Processed by: cddbd v1.5.1PL0 Copyright (c) Steve Scherf et al.
# Submitted via: CDex 1.51
#
DISCID=c409ad0e
DTITLE=Teodoro e Sampaio - Cheirinho de Mulher
DYEAR=2004
DGENRE=Sertanejo
TTITLE0=Cheirinho de Mulher
TTITLE1=Coracao Vira-lata
TTITLE2=Casa Assombrada
TTITLE3=Adeus Paixao
TTITLE4=O Chorao
TTITLE5=Oi Paixao
TTITLE6=Ex-mulher
TTITLE7=Quem e que tem Paixao
TTITLE8=Morro de Amor
TTITLE9=No Meio da Chuva
TTITLE10=Conta pra Ela
TTITLE11=Fingindo Dormir
TTITLE12=Agarradinho
TTITLE13=Seu Nome
EXTD=YEAR: 2004
EXTT0=
EXTT1=
EXTT2=
EXTT3=
EXTT4=
EXTT5=
EXTT6=
EXTT7=
EXTT8=
EXTT9=
EXTT10=
EXTT11=
EXTT12=
EXTT13=
PLAYORDER=
